<?xml version="1.0" encoding="UTF-8" standalone="no"?>
<svg
   viewBox="0 0 50 50"
   version="1.1"
   id="svg26"
   sodipodi:docname="1P_gun.svg"
   inkscape:version="1.1.2 (0a00cf5339, 2022-02-04)"
   xmlns:inkscape="http://www.inkscape.org/namespaces/inkscape"
   xmlns:sodipodi="http://sodipodi.sourceforge.net/DTD/sodipodi-0.dtd"
   xmlns="http://www.w3.org/2000/svg"
   xmlns:svg="http://www.w3.org/2000/svg">
  <sodipodi:namedview
     id="namedview28"
     pagecolor="#ffffff"
     bordercolor="#666666"
     borderopacity="1.0"
     inkscape:pageshadow="2"
     inkscape:pageopacity="0.0"
     inkscape:pagecheckerboard="0"
     showgrid="false"
     inkscape:zoom="17.46"
     inkscape:cx="25"
     inkscape:cy="25"
     inkscape:window-width="2560"
     inkscape:window-height="1376"
     inkscape:window-x="0"
     inkscape:window-y="0"
     inkscape:window-maximized="1"
     inkscape:current-layer="svg26" />
  <defs
     id="defs14">
    <style
       id="style2">.a946ee95-9218-40ec-bd29-658c8d5709f7{fill:url(#b2df5185-1ad3-4f15-ab21-9786a17e7065);}.b25ff664-c6c2-4f01-941f-43c7953b7eb4{fill:url(#b590f4a1-ef5c-421f-99fe-5a35f2ea6261);}</style>
    <linearGradient
       id="b2df5185-1ad3-4f15-ab21-9786a17e7065"
       x1="24.73"
       y1="48.44"
       x2="24.73"
       y2="8.59"
       gradientTransform="rotate(-0.29,-29.700685,25.60926)"
       gradientUnits="userSpaceOnUse">
      <stop
         offset="0.01"
         stop-color="#00bf11"
         id="stop4" />
      <stop
         offset="1"
         stop-color="#436a00"
         id="stop6" />
    </linearGradient>
    <linearGradient
       id="b590f4a1-ef5c-421f-99fe-5a35f2ea6261"
       x1="22.26"
       y1="43.39"
       x2="27.29"
       y2="43.39"
       gradientUnits="userSpaceOnUse">
      <stop
         offset="0"
         stop-color="#06b810"
         id="stop9" />
      <stop
         offset="1"
         stop-color="#0ab20e"
         id="stop11" />
    </linearGradient>
  </defs>
  <title
     id="title16">TankMan_1_V2</title>
  <g
     id="bd092ce4-1a0e-45d5-91b1-5dbd0476c743"
     data-name="圖層 2"
     transform="rotate(90,24.69,28.23)">
    <path
       class="a946ee95-9218-40ec-bd29-658c8d5709f7"
       d="m 17.17,8.35 0.09,16.84 h 3.87 l 0.12,23 h 7.08 l -0.12,-23 h 4 L 32.12,8.27 Z"
       id="path18"
       style="fill:url(#b2df5185-1ad3-4f15-ab21-9786a17e7065)" />
  </g>
  <g
     id="ac305333-0afa-4fe1-8104-0b3b90805985"
     data-name="圖層 1"
     transform="rotate(90,24.764949,28.375)">
    <path
       d="m 20.25,43.26 v 5.34 a 1,1 0 0 0 1,1 h 7 a 1,1 0 0 0 1,-1 v -5.45 m 0,0.07 V 26.96 h 3.34 a 1,1 0 0 0 1,-1 v -13.59 0 L 33.54,8.15 a 1,1 0 0 0 -1,-1 H 19.38 c -3.11,0 -3.12,0 -3.37,0.65 A 0.94,0.94 0 0 0 15.94,8.17 L 16,26 a 1,1 0 0 0 1,1 h 3.23 v 16.31 m 0,-25.21 V 25 H 18 V 13.42 h 13.58 v 11.52 h -2.31 v -7.08 a 4.41,4.41 0 0 0 -4.46,-4.43 c -3.38,0.01 -4.49,2.98 -4.62,4.63 z m 11.3,-8.96 v 2.2 h -3.24 v -2.2 z m -5.25,2.21 H 22.89 V 9.16 h 3.4 z M 20.85,9.16 v 2.19 H 18 V 9.17 Z m 1.42,38.42 v -3.3 0 L 22.2,18.14 c 0,-0.28 0.31,-2.68 2.58,-2.69 v 0 a 2.43,2.43 0 0 1 2.45,2.45 l 0.05,26.29 v 0 3.38 z"
       id="path21" />
    <rect
       class="b25ff664-c6c2-4f01-941f-43c7953b7eb4"
       x="22.26"
       y="42.950001"
       width="5.02"
       height="0.87"
       id="rect23"
       style="fill:url(#b590f4a1-ef5c-421f-99fe-5a35f2ea6261)" />
  </g>
</svg>
