<?xml version="1.0" encoding="utf-8"?>
<!-- Generator: Adobe Illustrator 23.1.0, SVG Export Plug-In . SVG Version: 6.00 Build 0)  -->
<svg version="1.1" id="圖層_1" xmlns="http://www.w3.org/2000/svg" xmlns:xlink="http://www.w3.org/1999/xlink" x="0px" y="0px"
	 viewBox="0 0 50 50" style="enable-background:new 0 0 50 50;" xml:space="preserve">
<style type="text/css">
	.st0{fill:#535354;}
	.st1{fill:#208FC6;}
	.st2{fill:url(#SVGID_1_);}
	.st3{fill:#444444;}
</style>
<g>
	<g>
		<g>
			
				<rect x="1.66" y="2.04" transform="matrix(1 -1.140502e-03 1.140502e-03 1 -0.0289 7.337915e-03)" class="st0" width="9.52" height="46.56"/>
			<g>
				<polygon class="st0" points="38.29,48.55 38.24,1.8 48.45,1.67 48.51,48.54 				"/>
			</g>
		</g>
		<polygon class="st1" points="38.23,46.84 28.39,46.85 28.4,48.17 21.05,48.18 21.05,46.86 11.31,46.88 11.21,2.11 18.85,2.1 
			18.88,3.42 30.73,3.4 30.75,2.19 38.14,2.19 		"/>
		
			<linearGradient id="SVGID_1_" gradientUnits="userSpaceOnUse" x1="24.73" y1="48.1611" x2="24.73" y2="8.3088" gradientTransform="matrix(1 -5.136911e-03 5.136911e-03 1 -0.1292 0.1289)">
			<stop  offset="5.586592e-03" style="stop-color:#0093FF"/>
			<stop  offset="1" style="stop-color:#00429F"/>
		</linearGradient>
		<path class="st2" d="M17.17,8.35l0.09,16.84l3.87-0.02c0.12,23.01,0.12,23.01,0.12,23.01l7.09-0.04l-0.12-23.01l3.99-0.02
			L32.12,8.27L17.17,8.35z"/>
	</g>
	<g>
		<path d="M49.93,3.59c-0.06-0.14-1.46-3.42-4.66-3.41c-2.56,0-3.58,0.01-3.68,0.01c-0.16,0.02-1.58,0.3-2.58,1.24
			c-0.03,0.03-0.05,0.07-0.08,0.11c0,0,0,0,0-0.01c-0.27-0.34-0.78-0.74-1.62-0.77c-1.71-0.06-6.42,0-6.62,0
			c-0.54,0.01-0.98,0.44-1,0.98l-0.04,1.38c-1.39,0-2.97,0-4.56,0l-5.14,0.01l0-1.35c0-0.27-0.11-0.52-0.3-0.71
			c-0.19-0.19-0.45-0.29-0.71-0.29l-5.96,0.01c-0.01,0-0.01,0-0.02,0c-0.7,0-1.4,0.21-1.93,0.6c-0.02-0.03-0.04-0.06-0.06-0.09
			c-1-0.94-2.43-1.11-2.59-1.12c-0.04,0-0.07-0.01-0.11-0.01c0,0-1.03,0.01-3.57,0.01c-0.01,0-0.01,0-0.02,0
			C1.52,0.19,0.13,3.46,0.07,3.6C0.02,3.72-0.01,3.85,0,3.99l0.08,41.95c-0.02,1.52,0.51,4.12,2.66,4.25
			c1.08,0.06,2.36,0.07,3.55,0.06c1.85-0.01,3.43-0.06,3.54-0.07c0.1,0,0.19-0.02,0.29-0.05c0.25-0.09,2.2-0.79,2.84-2.32l7.29-0.01
			l0,0.8c0,0.56,0.45,1,1.01,1l6.96-0.01c0,0,0,0,0,0c0.55,0,0.99-0.44,1-0.99l0.01-0.77c2.06,0,3.36,0,4.58-0.01
			c1.78-0.01,2.78-0.03,3.37-0.07c0.62,1.58,2.62,2.29,2.87,2.37c0.09,0.03,0.19,0.05,0.28,0.05c0.12,0,2.19,0.08,4.38,0.06
			c0.94,0,1.89-0.02,2.72-0.07c2.15-0.12,2.68-2.73,2.65-4.23L50.01,3.98C50.01,3.85,49.98,3.71,49.93,3.59z M34.12,5.13
			c0.22,0,0.9,0,0.93,0.75c0,0,0.08,35.2,0.08,36.9c0,0.23-0.05,0.38-0.09,0.42c-0.06,0.05-0.21,0.06-0.27,0.06l0,0.03
			c-0.31-0.04-0.7-0.05-1.16-0.05l-4.29-0.03l-0.03-16.26l3.33-0.01c0,0,0,0,0,0c0.56,0,1-0.45,1-1.01l-0.02-13.59c0,0,0,0,0-0.01
			c0,0,0,0,0-0.01l-0.05-4.22c-0.01-0.55-0.46-1-1.01-1L19.37,7.15C16.26,7.16,16.25,7.16,16,7.8c-0.05,0.12-0.07,0.25-0.07,0.37
			l0.04,17.79c0,0.56,0.45,1.01,1.01,1.01l3.23-0.01l0.03,16.31l-5.5,0c-0.07-0.12-0.13-0.42-0.12-0.68L14.55,6.53
			c0-0.05,0-0.1-0.01-0.14c0.04-0.13,0.06-0.27,0.04-0.42c-0.04-0.34,0-0.61,0.1-0.71c0.13-0.13,0.48-0.14,0.62-0.12
			c0.06,0.01,0.11,0.01,0.17,0.01c0,0,1.39-0.01,3.4,0l6.23-0.01C29.32,5.14,33.47,5.14,34.12,5.13z M20.19,18.06l0.01,6.89
			l-2.22,0.01l-0.03-11.58l3.9,0c0.01,0,0.02,0.01,0.04,0.01c0,0,0,0,0,0c0.01,0,0.02-0.01,0.04-0.01l5.35,0c0.01,0,0.01,0,0.02,0
			c0,0,0,0,0,0c0.01,0,0.01,0,0.02,0l4.27,0l0.02,11.58l-2.33,0l-0.01-7.09c-0.07-1.53-1.08-4.43-4.47-4.43
			C21.43,13.44,20.32,16.41,20.19,18.06z M31.53,9.14l0.03,2.21l-3.27,0l-0.01-2.2C29.44,9.14,30.54,9.14,31.53,9.14z M26.28,11.35
			l-3.39,0l-0.02-2.19c1.09,0,2.24-0.01,3.4-0.01L26.28,11.35z M20.85,9.16l0.02,2.19l-2.92,0l0-2.18
			C18.64,9.17,19.66,9.16,20.85,9.16z M12.14,3.2c0-0.36,0.85-0.39,0.85-0.39l4.95-0.01l0,0.34c-1.27,0-2.17,0-2.42,0
			c-0.35-0.04-1.44-0.09-2.23,0.66c-0.41,0.39-0.86,1.11-0.72,2.39c0,0.01,0,0.02,0,0.03c-0.03,0.1-0.05,0.2-0.05,0.31l0.07,36.02
			c-0.05,1.25,0.55,2.64,2.04,2.74l5.6,0l0,0.49l-7.4,0.01c-0.22-0.09-0.62-1.2-0.62-2.49C12.22,42.91,12.14,4.58,12.14,3.2z
			 M10.12,3.19c0,1.39,0.08,39.72,0.08,40.11c0,0.5,0.07,2.43,0.93,3.59c-0.09,0.55-1.01,1.07-1.54,1.28c-0.8,0.02-4.37,0.13-6.74,0
			c-0.51-0.03-0.77-1.45-0.76-2.22L2.01,4.21C2.27,3.7,3.15,2.2,4.7,2.19c0,0,0.01,0,0.01,0c2.18,0,3.25-0.01,3.52-0.01
			C8.51,2.22,9.2,2.39,9.6,2.77 M22.27,47.58l0-0.8l0-2.51c0,0,0,0,0,0L22.2,18.14c0.02-0.27,0.3-2.68,2.58-2.69c0,0,0.01,0,0.01,0
			c2.2,0,2.42,2.08,2.45,2.45l0.05,26.29c0,0,0,0,0,0l-0.06,3.39L22.27,47.58z M29.28,45.82l0.01-0.59
			c1.73,0.01,4.85,0.03,5.28,0.03c0.05,0,0.13,0.01,0.22,0.01c0.38,0,1.03-0.09,1.57-0.55c0.36-0.31,0.79-0.9,0.79-1.94
			c0-1.69-0.08-36.9-0.08-36.9c0-0.12-0.02-0.73-0.37-1.36c-0.29-0.52-1.01-1.4-2.58-1.4c-0.28,0-1.18,0-2.44,0l0.01-0.36
			c1.51-0.02,4.35-0.04,5.55,0.01c0.01,0,0.07,0.01,0.13,0.06c0.07,0.14,0.07,0.28,0.07,0.75c0,0.06,0.01,0.14,0.01,0.2l0.08,40.42
			c0,0.88-0.2,1.34-0.27,1.56c-0.02,0-0.04,0.01-0.06,0.01C36.6,45.8,32.53,45.82,29.28,45.82z M48.08,45.97
			c0.01,0.73-0.24,2.17-0.75,2.2c-2.38,0.14-5.97,0.04-6.76,0.01c-0.56-0.22-1.43-0.74-1.53-1.26c0.34-0.59,0.5-1.48,0.5-2.72
			L39.46,3.86c0.02-0.17-0.01-0.09,0-0.47c0.19-0.19,0.51-0.61,0.95-0.82c0.5-0.24,1.06-0.32,1.35-0.36c0.25,0,1.31-0.01,3.51-0.01
			c1.54,0,2.46,1.51,2.71,2.01L48.08,45.97z"/>
		<g>
			<g>
				<path class="st3" d="M8.76,6.91C8.76,6.91,8.76,6.91,8.76,6.91l-5.34,0c-0.56,0-1.01-0.45-1.01-1.01c0-0.56,0.45-1,1.01-1.01
					l5.33,0c0.56,0,1.01,0.45,1.01,1.01C9.76,6.46,9.32,6.91,8.76,6.91z"/>
			</g>
			<g>
				<path class="st3" d="M8.54,11.1C8.54,11.1,8.54,11.1,8.54,11.1l-5.11,0.01c-0.56,0-1.01-0.45-1.01-1.01c0-0.56,0.45-1.01,1-1.01
					c0,0,0,0,0,0l5.1-0.01c0.56,0,1.01,0.45,1.01,1.01C9.54,10.65,9.1,11.1,8.54,11.1z"/>
			</g>
			<g>
				<path class="st3" d="M8.72,15.31C8.72,15.31,8.72,15.31,8.72,15.31l-5.29,0.01c-0.56,0-1.01-0.45-1.01-1.01s0.45-1.04,1.01-1.01
					l5.28-0.01c0.56,0,1.01,0.45,1.01,1.01C9.73,14.85,9.28,15.3,8.72,15.31z"/>
			</g>
			<g>
				<path class="st3" d="M8.89,19.51C8.88,19.51,8.88,19.51,8.89,19.51l-5.52,0c-0.56,0-1.01-0.45-1.01-1.01
					c0-0.55,0.45-1.01,1-1.01c0,0,0,0,0.01,0l5.51,0c0.56,0,1.01,0.45,1.01,1.01C9.89,19.06,9.44,19.51,8.89,19.51z"/>
			</g>
			<g>
				<path class="st3" d="M8.93,23.83C8.93,23.83,8.93,23.83,8.93,23.83l-5.35,0.01c-0.56,0-1.01-0.45-1.01-1.01
					c0-0.56,0.45-1.01,1-1.01c0,0,0,0,0,0l5.34-0.01c0.56,0,1.01,0.45,1.01,1.01C9.93,23.37,9.48,23.82,8.93,23.83z"/>
			</g>
			<g>
				<path class="st3" d="M8.7,28.02C8.7,28.02,8.7,28.02,8.7,28.02l-5.11,0.01c-0.56,0-1.01-0.45-1.01-1.01c0-0.56,0.45-1.01,1-1.01
					c0,0,0,0,0,0L8.69,26c0.56,0,1.01,0.45,1.01,1.01C9.7,27.57,9.25,28.02,8.7,28.02z"/>
			</g>
			<g>
				<path class="st3" d="M8.88,32.23C8.88,32.23,8.88,32.23,8.88,32.23l-5.28,0c-0.56,0-1.01-0.45-1.01-1.01c0-0.55,0.45-1,1-1.01
					c0,0,0,0,0.01,0l5.27,0c0.56,0,1.01,0.45,1.01,1.01C9.88,31.78,9.44,32.23,8.88,32.23z"/>
			</g>
			<g>
				<path class="st3" d="M9.04,36.43C9.04,36.43,9.04,36.43,9.04,36.43l-5.51,0.01c-0.56,0-1.01-0.45-1.01-1.01
					c0-0.56,0.45-1.01,1-1.01c0,0,0,0,0,0l5.5-0.01c0.56,0,1.01,0.45,1.01,1.01C10.05,35.97,9.6,36.42,9.04,36.43z"/>
			</g>
			<g>
				<path class="st3" d="M8.85,41C8.84,41,8.84,41,8.85,41L3.5,41.01c-0.56,0-1.01-0.45-1.01-1.01c0-0.56,0.45-1.01,1-1.01
					c0,0,0,0,0,0l5.34-0.01c0.56,0,1.01,0.45,1.01,1.01C9.85,40.55,9.4,41,8.85,41z"/>
			</g>
			<g>
				<path class="st3" d="M8.63,45.2C8.62,45.2,8.62,45.2,8.63,45.2l-5.12,0.01c-0.56,0-1.01-0.45-1.01-1.01c0-0.56,0.45-1.01,1-1.01
					c0,0,0,0,0,0l5.11-0.01c0.56,0,1.01,0.45,1.01,1.01C9.63,44.75,9.18,45.2,8.63,45.2z"/>
			</g>
			<g>
				<path class="st3" d="M46.31,6.68C46.3,6.68,46.3,6.68,46.31,6.68l-5.35,0.01c-0.56,0-1.01-0.45-1.01-1.01
					c0-0.56,0.45-1.01,1-1.01c0,0,0,0,0,0l5.34-0.01c0.56,0,1.01,0.45,1.01,1.01C47.31,6.22,46.86,6.67,46.31,6.68z"/>
			</g>
			<g>
				<path class="st3" d="M46.07,10.88C46.07,10.88,46.07,10.88,46.07,10.88l-5.11,0.01c-0.56,0-1.01-0.45-1.01-1.01
					c0-0.56,0.45-1.01,1-1.01c0,0,0,0,0,0l5.1-0.01c0.56,0,1.01,0.45,1.01,1.01C47.08,10.43,46.63,10.88,46.07,10.88z"/>
			</g>
			<g>
				<path class="st3" d="M46.26,15.08C46.26,15.08,46.25,15.08,46.26,15.08l-5.29,0.01c-0.56,0-1.01-0.45-1.01-1.01
					c0-0.56,0.45-1.01,1-1.01c0,0,0,0,0,0l5.28-0.01c0.56,0,1.01,0.45,1.01,1.01C47.26,14.63,46.81,15.08,46.26,15.08z"/>
			</g>
			<g>
				<path class="st3" d="M46.42,19.28C46.42,19.28,46.42,19.28,46.42,19.28l-5.52,0.01c-0.56,0-1.01-0.45-1.01-1.01
					c0-0.56,0.45-1.01,1-1.01c0,0,0,0,0,0l5.51-0.01c0.56,0,1.01,0.45,1.01,1.01C47.42,18.82,46.98,19.27,46.42,19.28z"/>
			</g>
			<g>
				<path class="st3" d="M46.46,23.6C46.46,23.6,46.46,23.6,46.46,23.6l-5.35,0.01c-0.56,0-1.01-0.45-1.01-1.01
					c0-0.56,0.45-1.01,1-1.01c0,0,0,0,0,0l5.34-0.01c0.56,0,1.01,0.45,1.01,1.01C47.47,23.15,47.02,23.6,46.46,23.6z"/>
			</g>
			<g>
				<path class="st3" d="M46.24,27.8C46.24,27.8,46.24,27.8,46.24,27.8l-5.12,0.01c-0.56,0-1.01-0.45-1.01-1.01
					c0-0.56,0.45-1.01,1-1.01c0,0,0,0,0,0l5.11-0.01c0.56,0,1.01,0.45,1.01,1.01C47.25,27.34,46.8,27.79,46.24,27.8z"/>
			</g>
			<g>
				<path class="st3" d="M46.43,32C46.42,32,46.42,32,46.43,32l-5.29,0.01c-0.56,0-1.01-0.45-1.01-1.01c0-0.56,0.45-1.01,1-1.01
					c0,0,0,0,0,0l5.28-0.01c0.56,0,1.01,0.45,1.01,1.01C47.43,31.55,46.98,32,46.43,32z"/>
			</g>
			<g>
				<path class="st3" d="M46.59,36.2C46.59,36.2,46.58,36.2,46.59,36.2l-5.52,0.01c-0.56,0-1.01-0.45-1.01-1.01
					c0-0.56,0.45-1.01,1-1.01c0,0,0,0,0,0l5.51-0.01c0.56,0,1.01,0.45,1.01,1.01C47.59,35.75,47.14,36.2,46.59,36.2z"/>
			</g>
			<g>
				<path class="st3" d="M46.38,40.78C46.38,40.78,46.37,40.78,46.38,40.78l-5.34,0c-0.56,0-1.01-0.45-1.01-1.01
					c0-0.55,0.45-1,1-1.01c0,0,0,0,0.01,0l5.33,0c0.56,0,1.01,0.45,1.01,1.01C47.38,40.33,46.93,40.78,46.38,40.78z"/>
			</g>
			<g>
				<path class="st3" d="M46.16,44.98C46.16,44.98,46.16,44.98,46.16,44.98l-5.12,0.01c-0.56,0-1.01-0.45-1.01-1.01
					c0-0.56,0.45-1.01,1-1.01c0,0,0,0,0,0l5.11-0.01c0.56,0,1.01,0.45,1.01,1.01C47.16,44.52,46.71,44.97,46.16,44.98z"/>
			</g>
		</g>
	</g>
</g>
</svg>
