<?xml version="1.0" encoding="UTF-8" standalone="no"?>
<svg
   viewBox="0 0 50 50"
   version="1.1"
   id="svg60"
   sodipodi:docname="2P_body.svg"
   inkscape:version="1.1.2 (0a00cf5339, 2022-02-04)"
   xmlns:inkscape="http://www.inkscape.org/namespaces/inkscape"
   xmlns:sodipodi="http://sodipodi.sourceforge.net/DTD/sodipodi-0.dtd"
   xmlns="http://www.w3.org/2000/svg"
   xmlns:svg="http://www.w3.org/2000/svg">
  <sodipodi:namedview
     id="namedview62"
     pagecolor="#ffffff"
     bordercolor="#666666"
     borderopacity="1.0"
     inkscape:pageshadow="2"
     inkscape:pageopacity="0.0"
     inkscape:pagecheckerboard="0"
     showgrid="false"
     inkscape:zoom="17.46"
     inkscape:cx="25"
     inkscape:cy="25"
     inkscape:window-width="2560"
     inkscape:window-height="1376"
     inkscape:window-x="0"
     inkscape:window-y="0"
     inkscape:window-maximized="1"
     inkscape:current-layer="svg60" />
  <defs
     id="defs4">
    <style
       id="style2">.a5ec8d1f-c7cf-44d1-988f-455e44ffc098{fill:#535354;}.aab9e56c-012a-47c3-8416-27fa51261b64{fill:#208fc6;}.ac6989dd-f611-42d3-9996-cdcdffcd4afe{fill:#444;}.fa2864de-fc55-4885-9e45-b46a34944805{fill:#5aa13b;}</style>
  </defs>
  <title
     id="title6">TankMan_2_V2</title>
  <g
     id="be71d622-0927-4c1f-949d-e7ea50a3370d"
     data-name="圖層 4"
     transform="rotate(-90,25.071246,25.138968)">
    <rect
       class="a5ec8d1f-c7cf-44d1-988f-455e44ffc098"
       x="1.66"
       y="2.04"
       width="9.5200005"
       height="46.560001"
       transform="rotate(-0.07,8.1701103,24.560331)"
       id="rect8" />
    <polygon
       class="a5ec8d1f-c7cf-44d1-988f-455e44ffc098"
       points="38.24,1.8 48.45,1.67 48.51,48.54 38.29,48.55 "
       id="polygon10" />
    <polygon
       class="aab9e56c-012a-47c3-8416-27fa51261b64"
       points="28.39,46.85 28.4,46.17 21.05,46.18 21.05,46.86 11.31,46.88 11.21,2.11 18.85,2.1 18.88,3.42 30.73,3.4 30.75,2.19 38.14,2.19 38.23,46.84 "
       id="polygon12" />
  </g>
  <g
     id="ad5aac04-a4ce-481d-bab0-4266e164d907"
     data-name="圖層 3"
     transform="rotate(-90,25.074293,25.211689)">
    <path
       d="M 50,4 A 1,1 0 0 0 49.92,3.61 C 49.92,3.47 48.47,0.19 45.27,0.2 H 41.6 A 5.56,5.56 0 0 0 39,1.43 0.41,0.41 0 0 0 38.93,1.54 v 0 A 2.08,2.08 0 0 0 37.31,0.76 c -1.71,-0.06 -6.42,0 -6.62,0 a 1,1 0 0 0 -1,1 V 3.14 H 20 V 1.78 A 1,1 0 0 0 19.7,1.07 1,1 0 0 0 19,0.78 h -6 a 3.3,3.3 0 0 0 -1.93,0.6 c 0,0 0,-0.07 -0.06,-0.09 A 4.88,4.88 0 0 0 8.39,0.17 H 4.69 C 1.52,0.19 0.13,3.46 0.07,3.6 A 0.85,0.85 0 0 0 0,4 l 0.08,41.94 c 0,1.52 0.51,4.12 2.66,4.25 1.08,0.06 2.37,0.07 3.55,0.06 1.85,0 3.43,-0.06 3.54,-0.07 a 0.93,0.93 0 0 0 0.29,0 5,5 0 0 0 2.88,-2.37 h 7.29 9 4.58 c 1.78,0 2.78,0 3.37,-0.07 a 5,5 0 0 0 2.88,2.38 1.26,1.26 0 0 0 0.28,0 c 0.12,0 2.19,0.07 4.37,0.06 0.94,0 1.9,0 2.73,-0.07 2.15,-0.12 2.67,-2.73 2.65,-4.23 z M 25.1,5.15 h 9 a 0.79,0.79 0 0 1 0.93,0.75 c 0,0 0.08,35.21 0.08,36.9 a 0.72,0.72 0 0 1 -0.09,0.42 0.67,0.67 0 0 1 -0.3,0.08 h -0.27 c -0.3,0 -0.47,0 -0.94,0 H 29.22 14.74 A 1.5,1.5 0 0 1 14.62,42.62 L 14.55,6.53 c 0,0 0,-0.1 0,-0.14 a 1.2,1.2 0 0 0 0,-0.42 1,1 0 0 1 0.1,-0.71 0.92,0.92 0 0 1 0.62,-0.12 h 0.17 c 0,0 1.39,0 3.4,0 z m -15.5,43 c -0.8,0 -4.38,0.13 -6.74,0 -0.52,0 -0.77,-1.46 -0.76,-2.23 L 2,4.21 a 3.36,3.36 0 0 1 2.69,-2 H 8.23 A 2.81,2.81 0 0 1 9.6,2.8 l 0.52,0.42 c 0,1.39 0.09,39.73 0.09,40.11 a 6.83,6.83 0 0 0 0.93,3.6 C 11,47.44 10.12,48 9.6,48.17 Z m 3.25,-2.38 a 4,4 0 0 1 -0.63,-2.49 c 0,-0.39 -0.08,-38.72 -0.08,-40.1 0,-0.36 0.85,-0.4 0.85,-0.4 h 5 v 0.34 h -2.47 a 2.94,2.94 0 0 0 -2.23,0.66 2.75,2.75 0 0 0 -0.72,2.4 v 0 a 1.06,1.06 0 0 0 -0.05,0.31 l 0.07,36 c 0,1.25 0.55,2.64 2.05,2.74 h 14.6 v 0.49 z m 24.4,0 h -0.06 c -0.59,0 -4.7,0 -7.94,0 v -0.49 h 5.31 0.39 a 2.33,2.33 0 0 0 1.41,-0.57 2.43,2.43 0 0 0 0.78,-1.94 c 0,-1.69 -0.07,-36.9 -0.07,-36.9 A 3,3 0 0 0 36.7,4.51 2.76,2.76 0 0 0 34.12,3.11 H 31.68 V 2.77 c 1.5,0 4.35,0 5.55,0 a 0.25,0.25 0 0 1 0.13,0.06 1.77,1.77 0 0 1 0.07,0.76 c 0,0.05 0,0.14 0,0.19 L 37.5,44.2 a 3.92,3.92 0 0 1 -0.25,1.56 z m 10.08,2.41 c -2.38,0.13 -6,0 -6.76,0 C 40,48 39.14,47.44 39,46.91 A 5.55,5.55 0 0 0 39.5,44.2 L 39.46,3.86 a 2.21,2.21 0 0 0 0,-0.47 3.28,3.28 0 0 1 1,-0.82 4.69,4.69 0 0 1 1.35,-0.37 h 3.51 a 3.39,3.39 0 0 1 2.71,2 L 48.08,46 c 0.01,0.7 -0.24,2.14 -0.75,2.17 z"
       id="path15" />
    <path
       class="ac6989dd-f611-42d3-9996-cdcdffcd4afe"
       d="M 8.76,6.91 H 3.42 a 1,1 0 0 1 0,-2 h 5.34 a 1,1 0 0 1 0,2 z"
       id="path17" />
    <path
       class="ac6989dd-f611-42d3-9996-cdcdffcd4afe"
       d="m 8.54,11.1 h -5.1 a 1,1 0 0 1 0,-2 h 5.1 a 1,1 0 0 1 0,2 z"
       id="path19" />
    <path
       class="ac6989dd-f611-42d3-9996-cdcdffcd4afe"
       d="M 8.72,15.31 H 3.44 a 1,1 0 0 1 -1,-1 1,1 0 0 1 1,-1 h 5.28 a 1,1 0 1 1 0,2 z"
       id="path21" />
    <path
       class="ac6989dd-f611-42d3-9996-cdcdffcd4afe"
       d="M 8.89,19.51 H 3.37 a 1,1 0 0 1 0,-2 h 5.51 a 1,1 0 0 1 0,2 z"
       id="path23" />
    <path
       class="ac6989dd-f611-42d3-9996-cdcdffcd4afe"
       d="M 8.93,23.83 H 3.58 a 1,1 0 1 1 0,-2 h 5.34 a 1,1 0 0 1 1,1 1,1 0 0 1 -0.99,1 z"
       id="path25" />
    <path
       class="ac6989dd-f611-42d3-9996-cdcdffcd4afe"
       d="M 8.7,28 H 3.59 a 1,1 0 1 1 0,-2 h 5.1 a 1,1 0 0 1 0,2 z"
       id="path27" />
    <path
       class="ac6989dd-f611-42d3-9996-cdcdffcd4afe"
       d="M 8.88,32.23 H 3.6 a 1,1 0 0 1 0,-2 h 5.28 a 1,1 0 0 1 0,2 z"
       id="path29" />
    <path
       class="ac6989dd-f611-42d3-9996-cdcdffcd4afe"
       d="M 9,36.43 H 3.54 a 1,1 0 0 1 0,-2 H 9 a 1,1 0 0 1 0,2 z"
       id="path31" />
    <path
       class="ac6989dd-f611-42d3-9996-cdcdffcd4afe"
       d="M 8.85,41 H 3.5 a 1,1 0 1 1 0,-2 h 5.34 a 1,1 0 1 1 0,2 z"
       id="path33" />
    <path
       class="ac6989dd-f611-42d3-9996-cdcdffcd4afe"
       d="M 8.63,45.2 H 3.51 a 1,1 0 0 1 0,-2 h 5.11 a 1,1 0 0 1 0,2 z"
       id="path35" />
    <path
       class="ac6989dd-f611-42d3-9996-cdcdffcd4afe"
       d="M 46.31,6.68 H 41 a 1,1 0 0 1 0,-2 h 5.3 a 1,1 0 0 1 0,2 z"
       id="path37" />
    <path
       class="ac6989dd-f611-42d3-9996-cdcdffcd4afe"
       d="M 46.07,10.88 H 41 a 1,1 0 0 1 0,-2 h 5.11 a 1,1 0 1 1 0,2 z"
       id="path39" />
    <path
       class="ac6989dd-f611-42d3-9996-cdcdffcd4afe"
       d="M 46.26,15.08 H 41 a 1,1 0 0 1 -1,-1 1,1 0 0 1 1,-1 h 5.29 a 1,1 0 0 1 0,2 z"
       id="path41" />
    <path
       class="ac6989dd-f611-42d3-9996-cdcdffcd4afe"
       d="M 46.42,19.28 H 40.9 a 1,1 0 1 1 0,-2 h 5.51 a 1,1 0 0 1 0,2 z"
       id="path43" />
    <path
       class="ac6989dd-f611-42d3-9996-cdcdffcd4afe"
       d="m 46.46,23.6 h -5.35 a 1,1 0 0 1 0,-2 h 5.35 a 1,1 0 0 1 0,2 z"
       id="path45" />
    <path
       class="ac6989dd-f611-42d3-9996-cdcdffcd4afe"
       d="m 46.24,27.8 h -5.11 a 1,1 0 1 1 0,-2 h 5.12 a 1,1 0 1 1 0,2 z"
       id="path47" />
    <path
       class="ac6989dd-f611-42d3-9996-cdcdffcd4afe"
       d="m 46.43,32 h -5.29 a 1,1 0 0 1 0,-2 h 5.29 a 1,1 0 0 1 0,2 z"
       id="path49" />
    <path
       class="ac6989dd-f611-42d3-9996-cdcdffcd4afe"
       d="m 46.59,36.2 h -5.52 a 1,1 0 1 1 0,-2 h 5.52 a 1,1 0 0 1 0,2 z"
       id="path51" />
    <path
       class="ac6989dd-f611-42d3-9996-cdcdffcd4afe"
       d="M 46.38,40.78 H 41 a 1,1 0 0 1 -1,-1 1,1 0 0 1 1,-1 h 5.33 a 1,1 0 1 1 0,2 z"
       id="path53" />
    <path
       class="ac6989dd-f611-42d3-9996-cdcdffcd4afe"
       d="M 46.16,45 H 41 a 1,1 0 1 1 0,-2 h 5.11 a 1,1 0 0 1 1,1 1,1 0 0 1 -0.95,1 z"
       id="path55" />
    <polygon
       class="fa2864de-fc55-4885-9e45-b46a34944805"
       points="30.41,45.77 30.41,45.76 29.59,45.77 29.59,45.77 28.52,45.78 28.53,45.29 29.37,45.29 29.38,45.3 30.69,45.3 30.68,45.3 31.49,45.3 31.5,45.76 "
       id="polygon57" />
  </g>
</svg>
