<?xml version="1.0" encoding="UTF-8" standalone="no"?>
<!-- Created with Inkscape (http://www.inkscape.org/) -->

<svg
   version="1.1"
   width="72"
   height="48"
   id="svg2"
   sodipodi:docname="not_used.svg"
   inkscape:version="1.1 (c68e22c387, 2021-05-23)"
   xmlns:inkscape="http://www.inkscape.org/namespaces/inkscape"
   xmlns:sodipodi="http://sodipodi.sourceforge.net/DTD/sodipodi-0.dtd"
   xmlns="http://www.w3.org/2000/svg"
   xmlns:svg="http://www.w3.org/2000/svg">
  <sodipodi:namedview
     id="namedview36"
     pagecolor="#ffffff"
     bordercolor="#666666"
     borderopacity="1.0"
     inkscape:pageshadow="2"
     inkscape:pageopacity="0.0"
     inkscape:pagecheckerboard="0"
     showgrid="false"
     inkscape:zoom="45.254834"
     inkscape:cx="5.7673397"
     inkscape:cy="5.1707183"
     inkscape:window-width="1920"
     inkscape:window-height="1001"
     inkscape:window-x="-9"
     inkscape:window-y="41"
     inkscape:window-maximized="1"
     inkscape:current-layer="svg2" />
  <defs
     id="defs4" />
  <g
     id="g42"
     transform="translate(8e-8,-1028.3622)">
    <path
       d="m 4.3288343,1030.5266 a 2.1644172,2.1644172 0 1 1 -4.328834365570553,0 2.1644172,2.1644172 0 1 1 4.328834365570553,0 z"
       id="path3959"
       style="fill:#370000;fill-opacity:1;fill-rule:nonzero;stroke:none;stroke-width:0.180368" />
    <path
       d="m 3.9680982,1030.5266 a 1.803681,1.803681 0 1 1 -3.60736207,0 1.803681,1.803681 0 1 1 3.60736207,0 z"
       id="path3961"
       style="fill:#c50000;fill-opacity:1;fill-rule:nonzero;stroke:none;stroke-width:0.150307" />
    <path
       d="m 2.1644171,1029.0837 c -0.2635703,0 -0.508826,0.074 -0.7214724,0.1973 v 0.5241 H 0.91874994 c -0.12342131,0.2127 -0.19727761,0.4579 -0.19727761,0.7215 0,0.2636 0.0738563,0.5088 0.19727761,0.7215 H 1.4429447 v 0.5242 c 0.2126464,0.1234 0.4579021,0.1973 0.7214724,0.1973 0.2635703,0 0.508826,-0.074 0.7214724,-0.1973 v -0.5242 h 0.5241948 c 0.1234214,-0.2127 0.1972776,-0.4579 0.1972776,-0.7215 0,-0.2636 -0.073856,-0.5088 -0.1972776,-0.7215 H 2.8858895 v -0.5241 c -0.2126464,-0.1235 -0.4579021,-0.1973 -0.7214724,-0.1973 z"
       id="path3963"
       style="fill:#370000;fill-opacity:1;fill-rule:nonzero;stroke:none;stroke-width:0.180368" />
    <path
       d="m 2.1644171,1029.4444 c -0.1263859,0 -0.2479818,0.022 -0.3607362,0.062 v 0.6595 H 1.1442101 c -0.039819,0.1127 -0.062002,0.2343 -0.062002,0.3607 0,0.1264 0.022182,0.248 0.062002,0.3608 h 0.6594708 v 0.6594 c 0.1127544,0.04 0.2343503,0.062 0.3607362,0.062 0.1263859,0 0.2479818,-0.022 0.3607362,-0.062 v -0.6594 h 0.6594709 c 0.039819,-0.1128 0.062002,-0.2344 0.062002,-0.3608 0,-0.1264 -0.022182,-0.248 -0.062002,-0.3607 H 2.5251533 v -0.6595 c -0.1127544,-0.04 -0.2343503,-0.062 -0.3607362,-0.062 z"
       id="path3969"
       style="fill:#ffffff;fill-opacity:1;fill-rule:nonzero;stroke:none;stroke-width:0.180368" />
  </g>
  <g
     id="g48"
     transform="translate(8e-8,-1028.3622)"
     inkscape:export-filename="C:\Users\Jesse\Documents\PAIA\MLGame\games\Game\asset\image\bullet_station.png"
     inkscape:export-xdpi="96"
     inkscape:export-ydpi="96">
    <path
       d="m 8.6576687,1030.5266 a 2.1644172,2.1644172 0 1 1 -4.3288344,0 2.1644172,2.1644172 0 1 1 4.3288344,0 z"
       id="path3994"
       style="fill:#1e1d19;fill-opacity:1;fill-rule:nonzero;stroke:none;stroke-width:0.180368" />
    <path
       d="m 8.2969325,1030.5266 a 1.803681,1.803681 0 1 1 -3.607362,0 1.803681,1.803681 0 1 1 3.607362,0 z"
       id="path3996"
       style="fill:#6d6758;fill-opacity:1;fill-rule:nonzero;stroke:none;stroke-width:0.150307" />
    <path
       d="m 7.5135675,1029.5063 c -0.2817496,-0.2817 -0.7956625,-0.2246 -1.147855,0.1275 l -1.263436,1.2635 c 0.063107,0.2376 0.1842902,0.4633 0.3706606,0.6496 0.186383,0.1864 0.4120382,0.3076 0.6496628,0.3707 l 1.2634389,-1.2635 c 0.3521923,-0.3521 0.4092911,-0.8661 0.1275287,-1.1478 z"
       id="path3998"
       style="fill:#1e1d19;fill-opacity:1;fill-rule:nonzero;stroke:none;stroke-width:0.180368" />
    <path
       d="m 6.9632067,1029.6916 c -0.1154006,0.023 -0.2377136,0.093 -0.3433687,0.1987 l -0.10559,0.1048 c 0.059964,0.1037 0.1312582,0.2007 0.220035,0.2894 0.087401,0.087 0.1882987,0.1582 0.2901585,0.2177 l 0.1055772,-0.1049 c 0.2113231,-0.2113 0.2674603,-0.4955 0.1265854,-0.6363 -0.070437,-0.071 -0.1779966,-0.092 -0.2933974,-0.069 z m -0.7052668,0.559 -0.7439239,0.7404 c 0.051581,0.1078 0.1265305,0.2119 0.2158977,0.3013 0.089367,0.089 0.1871443,0.1597 0.2950216,0.2113 l 0.7431983,-0.746 c -0.1018607,-0.059 -0.1971808,-0.1309 -0.2845819,-0.2183 -0.088836,-0.089 -0.1655884,-0.185 -0.2256118,-0.2887 z"
       id="path4000"
       style="fill:#ffffff;fill-opacity:1;fill-rule:nonzero;stroke:none;stroke-width:0.180368" />
  </g>
  <g
     id="g106"
     inkscape:export-filename="C:\Users\Jesse\Documents\PAIA\MLGame\games\Game\asset\image\bullets_station.png"
     inkscape:export-xdpi="96"
     inkscape:export-ydpi="96">
    <path
       d="m 8.6576688,6.4933 a 2.1644172,2.1644172 0 1 1 -4.3288344,0 2.1644172,2.1644172 0 1 1 4.3288344,0 z"
       id="path4021"
       style="fill:#1a191e;fill-opacity:1;fill-rule:nonzero;stroke:none;stroke-width:0.180368" />
    <path
       d="m 8.2969326,6.4933 a 1.803681,1.803681 0 1 1 -3.607362,0 1.803681,1.803681 0 1 1 3.607362,0 z"
       id="path4023"
       style="fill:#58606d;fill-opacity:1;fill-rule:nonzero;stroke:none;stroke-width:0.150307" />
    <path
       d="M 7.8961931,5.8556 C 7.6144434,5.5738 7.1005306,5.6309 6.7483381,5.9831 L 5.7399792,6.9914 C 5.8030862,7.2291 5.9242696,7.4547 6.11064,7.6411 6.297023,7.8275 6.5226781,7.9487 6.7603028,8.0118 L 7.7686642,7.0034 C 8.1208566,6.6512 8.1779553,6.1373 7.8961931,5.8556 Z"
       id="path4047"
       style="fill:#1a191e;fill-opacity:1;fill-rule:nonzero;stroke:none;stroke-width:0.180368" />
    <path
       d="M 7.130956,5.0903 C 6.8492063,4.8086 6.3352935,4.8657 5.983101,5.2179 L 4.9747423,6.2262 c 0.063107,0.2376 0.1842904,0.4633 0.3706606,0.6497 0.186383,0.1863 0.4120381,0.3075 0.6496628,0.3706 L 7.0034273,6.2382 C 7.3556196,5.886 7.4127184,5.372 7.130956,5.0903 Z"
       id="path4043"
       style="fill:#1a191e;fill-opacity:1;fill-rule:nonzero;stroke:none;stroke-width:0.180368" />
    <path
       d="M 6.5805952,5.2756 C 6.4651833,5.2986 6.3428766,5.3686 6.2372213,5.4743 L 6.1316441,5.5791 c 0.059954,0.1037 0.1312506,0.2007 0.2200222,0.2894 0.087404,0.087 0.1882992,0.1582 0.2901635,0.2177 L 6.747407,5.9813 C 6.9587303,5.77 7.0148625,5.4858 6.8739876,5.345 6.8035556,5.274 6.695992,5.253 6.5805952,5.276 Z M 5.8753284,5.8346 5.3845717,6.3195 c 0.051581,0.1079 0.1265431,0.2119 0.2159103,0.3013 0.089367,0.089 0.1871444,0.1597 0.2950218,0.2113 L 6.3855105,6.3416 C 6.2836462,6.2826 6.1883404,6.2107 6.1009335,6.1233 6.0120975,6.0343 5.9353451,5.9383 5.8753222,5.8346 Z"
       id="path4045"
       style="fill:#ffffff;fill-opacity:1;fill-rule:nonzero;stroke:none;stroke-width:0.180368" />
    <path
       d="M 7.3458323,6.0408 C 7.2304204,6.0638 7.1081137,6.1338 7.0024584,6.2395 L 6.8968812,6.3444 C 6.9568352,6.448 7.0281316,6.545 7.1169034,6.6338 7.2043074,6.7208 7.3052026,6.792 7.4070669,6.8514 L 7.5126441,6.7466 C 7.7239674,6.5352 7.7800995,6.2511 7.6392245,6.1102 7.5687925,6.0402 7.4612291,6.0172 7.3458323,6.0412 Z M 6.6405655,6.5998 6.1498088,7.0847 c 0.051581,0.1079 0.1265431,0.212 0.2159103,0.3013 0.089367,0.089 0.1871444,0.1598 0.2950218,0.2113 L 7.1507476,7.1069 C 7.0488833,7.0469 6.9535773,6.9759 6.8661706,6.8885 6.7773336,6.7995 6.7005822,6.7035 6.6405593,6.5998 Z"
       id="path4049"
       style="fill:#ffffff;fill-opacity:1;fill-rule:nonzero;stroke:none;stroke-width:0.180368" />
    <path
       d="M 7.2584956,5.728 C 6.9767458,5.4463 6.4628331,5.5034 6.1106406,5.8556 L 5.1022819,6.8639 c 0.063107,0.2376 0.1842902,0.4633 0.3706606,0.6497 0.186383,0.1863 0.4120381,0.3075 0.6496628,0.3706 L 7.1309667,6.8758 C 7.483159,6.5237 7.5402578,6.0098 7.2584956,5.728 Z"
       id="path4025"
       style="fill:#1a191e;fill-opacity:1;fill-rule:nonzero;stroke:none;stroke-width:0.180368" />
    <path
       d="M 6.7081348,5.9133 C 6.5927228,5.9363 6.4704161,6.0063 6.3647608,6.112 L 6.2591836,6.2168 c 0.059954,0.1037 0.1312504,0.2007 0.2200222,0.2894 0.087404,0.087 0.1882993,0.1582 0.2901636,0.2177 L 6.8749466,6.619 C 7.0862698,6.4077 7.142402,6.1235 7.0015271,5.9827 6.9310951,5.9117 6.8235316,5.8907 6.7081348,5.9137 Z M 6.0028679,6.4723 5.5121112,6.9572 c 0.051581,0.1079 0.1265432,0.2119 0.2159104,0.3013 0.089367,0.089 0.1871443,0.1597 0.2950217,0.2113 L 6.5130501,6.9793 C 6.4111858,6.9203 6.3158798,6.8484 6.2284731,6.761 6.1396361,6.672 6.0628847,6.576 6.0028618,6.4723 Z"
       id="path4027"
       style="fill:#ffffff;fill-opacity:1;fill-rule:nonzero;stroke:none;stroke-width:0.180368" />
  </g>
  <g
     id="g112">
    <path
       d="M 4.3288344,6.4933 A 2.1644172,2.1644172 0 1 1 0,6.4933 a 2.1644172,2.1644172 0 1 1 4.3288344,0 z"
       id="path4051"
       style="fill:#191e1a;fill-opacity:1;fill-rule:nonzero;stroke:none;stroke-width:0.180368" />
    <path
       d="m 3.9680982,6.4933 a 1.803681,1.803681 0 1 1 -3.607362,0 1.803681,1.803681 0 1 1 3.607362,0 z"
       id="path4053"
       style="fill:#4c8f36;fill-opacity:1;fill-rule:nonzero;stroke:none;stroke-width:0.150307" />
    <path
       d="M 2.8915261,5.2419 2.1644172,5.659 1.4485813,5.2476 c -0.4248398,0.251 -0.71583588,0.7143 -0.71583588,1.2457 0,0 -7.41e-6,0 0,0.01 L 1.4429448,6.9148 v 0.8229 c 0.214186,0.1275 0.4601513,0.2029 0.7271089,0.2029 0.2597207,0 0.505583,-0.07 0.7158359,-0.1916 V 6.9148 L 3.607362,6.4977 C 3.607362,6.2509 3.546729,6.0132 3.4382669,5.81 L 3.4213569,5.787 C 3.4019889,5.752 3.3814119,5.718 3.3593549,5.6855 3.2377704,5.5045 3.0799409,5.3558 2.8915251,5.2458 Z"
       id="path4055"
       style="fill:#191e1a;fill-opacity:1;fill-rule:nonzero;stroke:none;stroke-width:0.180368" />
    <path
       d="M 1.4598543,5.6703 C 1.2765754,5.8274 1.1454597,6.0435 1.0991181,6.2903 L 1.803681,6.6962 v 0.8173 c 0.1127544,0.04 0.2343503,0.062 0.3607362,0.062 0.1263859,0 0.2479818,-0.022 0.3607362,-0.062 V 6.6962 L 3.2297163,6.2903 C 3.1833743,6.0435 3.052259,5.8274 2.8689801,5.6703 L 2.1644172,6.0762 Z"
       id="rect4057"
       style="fill:#ffffff;fill-opacity:1;fill-rule:nonzero;stroke:none;stroke-width:0.180368" />
  </g>
  <g
     id="g90">
    <path
       d="m 12.986503,2.1644 a 2.1644172,2.1644172 0 1 1 -4.3288342,0 2.1644172,2.1644172 0 1 1 4.3288342,0 z"
       id="path4081"
       style="fill:#1c191e;fill-opacity:1;fill-rule:nonzero;stroke:none;stroke-width:0.180368" />
    <path
       d="m 12.625767,2.1644 a 1.8036811,1.8036811 0 1 1 -3.607362,0 1.8036811,1.8036811 0 1 1 3.607362,0 z"
       id="path4083"
       style="fill:#6a1088;fill-opacity:1;fill-rule:nonzero;stroke:none;stroke-width:0.150307" />
    <path
       d="m 10.822086,0.7215 c -0.680886,0 -1.2517248,0.4704 -1.4034893,1.1047 L 10.822086,3.6074 12.225575,1.8262 C 12.073811,1.1919 11.502971,0.7215 10.822086,0.7215 Z"
       id="path4139"
       style="fill:#1c191e;fill-opacity:1;fill-rule:nonzero;stroke:none;stroke-width:0.180368" />
    <path
       d="m 10.822086,1.0822 c -0.493863,0 -0.907284,0.3314 -1.0371166,0.7835 L 10.822086,3.2466 11.859202,1.8657 C 11.72937,1.4136 11.315949,1.0822 10.822086,1.0822 Z"
       id="path4121"
       style="fill:#ffffff;fill-opacity:1;fill-rule:nonzero;stroke:none;stroke-width:0.180368" />
    <path
       d="m 10.822086,1.4429 c -0.493863,0 -0.907284,0.3314 -1.0371166,0.7835 l 0.095821,0.1297 c 0.1846446,-0.33 0.5359556,-0.5524 0.9412956,-0.5524 0.40534,0 0.756651,0.2224 0.941296,0.5524 l 0.09582,-0.1297 C 11.72937,1.7743 11.315949,1.4429 10.822086,1.4429 Z"
       id="path4126"
       style="fill:#1c191e;fill-opacity:1;fill-rule:nonzero;stroke:none;stroke-width:0.180368" />
    <path
       d="m 10.822086,2.1644 c -0.335161,0 -0.631,0.1552 -0.828566,0.3946 l 0.157822,0.1973 c 0.183628,-0.1458 0.417406,-0.2311 0.670744,-0.2311 0.253338,0 0.487116,0.085 0.670744,0.2311 L 11.650652,2.559 C 11.453085,2.3196 11.157247,2.1644 10.822086,2.1644 Z"
       id="path4132"
       style="fill:#1c191e;fill-opacity:1;fill-rule:nonzero;stroke:none;stroke-width:0.180368" />
    <path
       d="m 10.822086,2.8859 c -0.172024,0 -0.335059,0.041 -0.479103,0.1127 l 0.22546,0.2818 c 0.08196,-0.02 0.165481,-0.034 0.253643,-0.034 0.08989,0 0.175898,0.012 0.259279,0.034 L 11.301189,3.0043 C 11.156973,2.9313 10.995242,2.8859 10.822086,2.8859 Z"
       id="path4134"
       style="fill:#1c191e;fill-opacity:1;fill-rule:nonzero;stroke:none;stroke-width:0.180368" />
  </g>
  <g
     id="g96">
    <path
       d="m 12.986503,6.4933 a 2.1644172,2.1644172 0 1 1 -4.3288342,0 2.1644172,2.1644172 0 1 1 4.3288342,0 z"
       id="path4148"
       style="fill:#191c1e;fill-opacity:1;fill-rule:nonzero;stroke:none;stroke-width:0.180368" />
    <path
       d="m 12.625767,6.4933 a 1.8036811,1.8036811 0 1 1 -3.607362,0 1.8036811,1.8036811 0 1 1 3.607362,0 z"
       id="path4150"
       style="fill:#106e88;fill-opacity:1;fill-rule:nonzero;stroke:none;stroke-width:0.150307" />
    <path
       d="m 10.822086,5.0503 c -0.796917,0 -1.4429448,0.646 -1.4429448,1.443 0,0.7969 0.6460278,1.4429 1.4429448,1.4429 0.796916,0 1.442945,-0.646 1.442945,-1.4429 0,-0.797 -0.646029,-1.443 -1.442945,-1.443 z m 0,1.0822 c 0.199229,0 0.360736,0.1615 0.360736,0.3608 0,0.1992 -0.161507,0.3607 -0.360736,0.3607 -0.199229,0 -0.360736,-0.1615 -0.360736,-0.3607 0,-0.1993 0.161507,-0.3608 0.360736,-0.3608 z"
       id="path4152"
       style="fill:#191c1e;fill-opacity:1;fill-rule:nonzero;stroke:none;stroke-width:0.180368" />
    <path
       d="m 10.822086,5.411 c -0.597687,0 -1.0822086,0.4846 -1.0822086,1.0823 0,0.5976 0.4845216,1.0822 1.0822086,1.0822 0.597687,0 1.082209,-0.4846 1.082209,-1.0822 0,-0.5977 -0.484522,-1.0823 -1.082209,-1.0823 z m 0,0.3608 c 0.398458,0 0.721472,0.323 0.721472,0.7215 0,0.3984 -0.323014,0.7214 -0.721472,0.7214 -0.398458,0 -0.721472,-0.323 -0.721472,-0.7214 0,-0.3985 0.323014,-0.7215 0.721472,-0.7215 z"
       id="path4185"
       style="fill:#ffffff;fill-opacity:1;fill-rule:nonzero;stroke:none;stroke-width:0.180368" />
  </g>
</svg>
